<?xml version="1.0" encoding="utf-8"?>
<!-- Generator: Adobe Illustrator 21.0.0, SVG Export Plug-In . SVG Version: 6.00 Build 0)  -->
<svg version="1.1" id="Layer_1" xmlns="http://www.w3.org/2000/svg" xmlns:xlink="http://www.w3.org/1999/xlink" x="0px" y="0px"
	 viewBox="0 0 143 54" style="enable-background:new 0 0 143 54;" xml:space="preserve">
<style type="text/css">
	.st0{clip-path:url(#SVGID_2_);}
	.st1{clip-path:url(#SVGID_4_);fill:#F16B6B;}
	.st2{clip-path:url(#SVGID_6_);}
	.st3{clip-path:url(#SVGID_8_);fill:#F16B6B;}
	.st4{clip-path:url(#SVGID_10_);}
	.st5{clip-path:url(#SVGID_12_);fill:#F16B6B;}
	.st6{clip-path:url(#SVGID_14_);}
	.st7{clip-path:url(#SVGID_16_);fill:#FFFFFF;}
	.st8{clip-path:url(#SVGID_18_);}
	.st9{clip-path:url(#SVGID_20_);enable-background:new    ;}
	.st10{clip-path:url(#SVGID_22_);}
	.st11{clip-path:url(#SVGID_24_);}
	.st12{clip-path:url(#SVGID_26_);fill:#FFFFFF;}
	.st13{clip-path:url(#SVGID_28_);}
	.st14{clip-path:url(#SVGID_30_);fill:#FFFFFF;}
	.st15{clip-path:url(#SVGID_32_);}
	.st16{clip-path:url(#SVGID_34_);fill:#FFFFFF;}
	.st17{clip-path:url(#SVGID_36_);}
	.st18{clip-path:url(#SVGID_38_);fill:#FFFFFF;}
	.st19{clip-path:url(#SVGID_40_);}
	.st20{clip-path:url(#SVGID_42_);fill:#FFFFFF;}
</style>
<g>
	<defs>
		<path id="SVGID_1_" d="M121.6,10.5c1.3,0.2,2.6,0.2,3.3-0.3c-0.7,0.5-2.6,1.5-2.8,1.7c-3.7,1.8-7.4,3.4-11.4,4.2
			c-4.7,0.9-9.6,0.9-14.3,0c-4-0.8-7.7-2.4-11.3-4.1c-0.2-0.2-2.1-1.2-2.8-1.7c0,0,1,0.4,3.3,0.1c0,0,3.4-0.2,6.2-1.6
			c3.8-1.9,7-4.6,7.6-5.2c0.2-0.2,1.5-1.5,2.5-2.7c0.3-0.3,0.7-0.6,1.1-0.8C103,0,103.3,0,103.6,0c0.3,0,0.5,0,0.7,0.2
			c0.4,0.2,0.8,0.4,1.1,0.8c1.1,1.1,2.3,2.5,2.5,2.7c3,2.7,6.4,5,10.3,6.1C119,9.9,120.3,10.3,121.6,10.5z"/>
	</defs>
	<clipPath id="SVGID_2_">
		<use xlink:href="#SVGID_1_"  style="overflow:visible;"/>
	</clipPath>
	<g class="st0">
		<defs>
			<rect id="SVGID_3_" y="-1" width="143" height="55.4"/>
		</defs>
		<clipPath id="SVGID_4_">
			<use xlink:href="#SVGID_3_"  style="overflow:visible;"/>
		</clipPath>
		<rect x="77.2" y="-5" class="st1" width="52.7" height="26.7"/>
	</g>
</g>
<g>
	<defs>
		<path id="SVGID_5_" d="M74.7,4.2c0.3-0.4,1.3,0,1.7,0.1c1.1,0.3,2.2,0.7,3.4,1c1.9,0.5,3.9,0.9,5.9,1c1.4,0.1,2.8,0.1,4.2,0.1
			c0.9,0,1.7-0.2,2.6-0.4c0.1,0,0.2,0,0.3-0.1c0,0,0.1,0,0.1,0c0,0,0,0.1,0,0.1c-0.2,0.2-0.5,0.3-0.7,0.4c-1.8,1-3.7,1.7-5.7,2.1
			c-1.8,0.3-4.2,0.8-5.8-0.1c-2.1-1.2-4-2.6-6-4.1C74.6,4.4,74.6,4.3,74.7,4.2"/>
	</defs>
	<clipPath id="SVGID_6_">
		<use xlink:href="#SVGID_5_"  style="overflow:visible;"/>
	</clipPath>
	<g class="st2">
		<defs>
			<rect id="SVGID_7_" y="-1" width="143" height="55.4"/>
		</defs>
		<clipPath id="SVGID_8_">
			<use xlink:href="#SVGID_7_"  style="overflow:visible;"/>
		</clipPath>
		<rect x="69.6" y="-1" class="st3" width="28.3" height="15.2"/>
	</g>
</g>
<g>
	<defs>
		<path id="SVGID_9_" d="M132.6,4.2c-0.3-0.4-1.3,0-1.7,0.1c-1.1,0.3-2.2,0.7-3.4,1c-1.9,0.5-3.9,0.9-5.9,1
			c-1.4,0.1-2.8,0.1-4.2,0.1c-0.9,0-1.7-0.2-2.6-0.4c-0.1,0-0.2,0-0.3-0.1c0,0-0.1,0-0.1,0c0,0,0,0.1,0,0.1c0.2,0.2,0.5,0.3,0.7,0.4
			c1.8,1,3.7,1.7,5.7,2.1c1.8,0.3,4.2,0.8,5.8-0.1c2.1-1.2,4-2.6,6-4.1C132.7,4.4,132.7,4.3,132.6,4.2"/>
	</defs>
	<clipPath id="SVGID_10_">
		<use xlink:href="#SVGID_9_"  style="overflow:visible;"/>
	</clipPath>
	<g class="st4">
		<defs>
			<rect id="SVGID_11_" y="-1" width="143" height="55.4"/>
		</defs>
		<clipPath id="SVGID_12_">
			<use xlink:href="#SVGID_11_"  style="overflow:visible;"/>
		</clipPath>
		<rect x="109.5" y="-1" class="st5" width="28.3" height="15.2"/>
	</g>
</g>
<g>
	<defs>
		<polygon id="SVGID_13_" points="0,49.1 15.1,28.7 1.7,28.7 1.7,23.3 24.5,23.3 24.5,26.9 9.4,47.3 25,47.3 25,52.8 0,52.8 		"/>
	</defs>
	<clipPath id="SVGID_14_">
		<use xlink:href="#SVGID_13_"  style="overflow:visible;"/>
	</clipPath>
	<g class="st6">
		<defs>
			<rect id="SVGID_15_" y="-1" width="143" height="55.4"/>
		</defs>
		<clipPath id="SVGID_16_">
			<use xlink:href="#SVGID_15_"  style="overflow:visible;"/>
		</clipPath>
		<rect x="-5" y="18.3" class="st7" width="35" height="39.5"/>
	</g>
</g>
<g>
	<defs>
		<rect id="SVGID_17_" width="142.3" height="53.5"/>
	</defs>
	<clipPath id="SVGID_18_">
		<use xlink:href="#SVGID_17_"  style="overflow:visible;"/>
	</clipPath>
	<g class="st8">
		<defs>
			<rect id="SVGID_19_" y="-1" width="143" height="55.4"/>
		</defs>
		<clipPath id="SVGID_20_">
			<use xlink:href="#SVGID_19_"  style="overflow:visible;"/>
		</clipPath>
		<g class="st9">
			<g>
				<defs>
					<rect id="SVGID_21_" x="29" y="9" width="114" height="45"/>
				</defs>
				<clipPath id="SVGID_22_">
					<use xlink:href="#SVGID_21_"  style="overflow:visible;"/>
				</clipPath>
				<g class="st10">
					<defs>
						<rect id="SVGID_23_" x="29.7" y="23.3" width="7.5" height="29.5"/>
					</defs>
					<clipPath id="SVGID_24_">
						<use xlink:href="#SVGID_23_"  style="overflow:visible;"/>
					</clipPath>
					<g class="st11">
						<defs>
							<rect id="SVGID_25_" width="143" height="54"/>
						</defs>
						<clipPath id="SVGID_26_">
							<use xlink:href="#SVGID_25_"  style="overflow:visible;"/>
						</clipPath>
						<rect x="24.7" y="18.3" class="st12" width="17.5" height="39.5"/>
					</g>
				</g>
				<g class="st10">
					<defs>
						<path id="SVGID_27_" d="M81.2,52.4c-1.8,0.5-4,1.1-6.6,1.1c-7.3,0-10.1-4.3-10.1-10.7V28.7H53.9v24h-7.5v-24h-4.3v-5.2
							l4.3-0.3v-3.1c0-6.1,3.1-10.6,10.6-10.6c2.3,0,4.4,0.5,5.9,1l-1.4,5.2c-1.2-0.5-2.4-0.7-3.5-0.7c-2.6,0-4,1.6-4,5v3.2h11
							l0.9-8.1H72v8.1h8.2v5.5H72v14.1c0,3.5,1.5,5.2,4.6,5.2c1.1,0,2.4-0.3,3.3-0.7L81.2,52.4z"/>
					</defs>
					<clipPath id="SVGID_28_">
						<use xlink:href="#SVGID_27_"  style="overflow:visible;"/>
					</clipPath>
					<g class="st13">
						<defs>
							<rect id="SVGID_29_" width="143" height="54"/>
						</defs>
						<clipPath id="SVGID_30_">
							<use xlink:href="#SVGID_29_"  style="overflow:visible;"/>
						</clipPath>
						<rect x="37.1" y="4.6" class="st14" width="49" height="53.9"/>
					</g>
				</g>
				<g class="st10">
					<defs>
						<path id="SVGID_31_" d="M96.8,22.6c8.6,0,13.2,5.8,13.2,14c0,1.3-0.1,2.5-0.3,3.2H89.3c0.7,5.3,4.3,8.4,9.4,8.4
							c2.7,0,5.1-0.8,7.4-2.2l2.5,4.3c-3.1,1.9-6.9,3.2-10.9,3.2c-8.8,0-15.7-5.7-15.7-15.4C82.1,28.4,89.3,22.6,96.8,22.6z
							 M103.5,35.4c0-4.7-2.1-7.5-6.5-7.5c-3.8,0-7,2.6-7.7,7.5H103.5z"/>
					</defs>
					<clipPath id="SVGID_32_">
						<use xlink:href="#SVGID_31_"  style="overflow:visible;"/>
					</clipPath>
					<g class="st15">
						<defs>
							<rect id="SVGID_33_" width="143" height="54"/>
						</defs>
						<clipPath id="SVGID_34_">
							<use xlink:href="#SVGID_33_"  style="overflow:visible;"/>
						</clipPath>
						<rect x="77.1" y="17.6" class="st16" width="37.9" height="41"/>
					</g>
				</g>
				<g class="st10">
					<defs>
						<path id="SVGID_35_" d="M115,23.3h6.2l0.5,4h0.3c2.9-2.6,6.1-4.7,10.5-4.7c6.8,0,9.8,4.3,9.8,11.7v18.5h-7.5V35.2
							c0-4.9-1.5-6.7-5-6.7c-2.8,0-4.6,1.3-7.3,3.7v20.6H115V23.3z"/>
					</defs>
					<clipPath id="SVGID_36_">
						<use xlink:href="#SVGID_35_"  style="overflow:visible;"/>
					</clipPath>
					<g class="st17">
						<defs>
							<rect id="SVGID_37_" width="143" height="54"/>
						</defs>
						<clipPath id="SVGID_38_">
							<use xlink:href="#SVGID_37_"  style="overflow:visible;"/>
						</clipPath>
						<rect x="110" y="17.6" class="st18" width="37.2" height="40.2"/>
					</g>
				</g>
				<g class="st10">
					<defs>
						<path id="SVGID_39_" d="M29.1,13.5c0.1-2.3,1.9-3.8,4.3-3.7c2.4,0.1,4.2,1.7,4.1,4c-0.1,2.2-1.9,3.7-4.3,3.6
							C30.8,17.4,29.1,15.7,29.1,13.5"/>
					</defs>
					<clipPath id="SVGID_40_">
						<use xlink:href="#SVGID_39_"  style="overflow:visible;"/>
					</clipPath>
					<g class="st19">
						<defs>
							<rect id="SVGID_41_" width="143" height="54"/>
						</defs>
						<clipPath id="SVGID_42_">
							<use xlink:href="#SVGID_41_"  style="overflow:visible;"/>
						</clipPath>
						<rect x="24.1" y="4.8" class="st20" width="18.4" height="17.6"/>
					</g>
				</g>
			</g>
		</g>
	</g>
</g>
</svg>
